<svg width="22" height="21" viewBox="0 0 22 21" fill="none" xmlns="http://www.w3.org/2000/svg">
<path d="M21.501 10.7332C21.501 9.86987 21.4295 9.23987 21.2748 8.58655H11.2153V12.4832H17.12C17.001 13.4515 16.3582 14.9099 14.9296 15.8898L14.9096 16.0203L18.0902 18.435L18.3106 18.4565C20.3343 16.6249 21.501 13.9298 21.501 10.7332Z" fill="#4285F4"/>
<path d="M11.214 21C14.1068 21 16.5353 20.0666 18.3092 18.4567L14.9282 15.8899C14.0235 16.5083 12.8092 16.9399 11.214 16.9399C8.38069 16.9399 5.97596 15.1083 5.11874 12.5766L4.99309 12.5871L1.68583 15.0954L1.64258 15.2132C3.40446 18.6433 7.0235 21 11.214 21Z" fill="#34A853"/>
<path d="M5.12046 12.5767C4.89428 11.9234 4.76337 11.2233 4.76337 10.5C4.76337 9.77667 4.89428 9.07669 5.10856 8.42337L5.10257 8.28423L1.75386 5.7356L1.64429 5.78667C0.918136 7.21002 0.501465 8.80838 0.501465 10.5C0.501465 12.1917 0.918136 13.79 1.64429 15.2133L5.12046 12.5767Z" fill="#FBBC05"/>
<path d="M11.2141 4.05997C13.2259 4.05997 14.583 4.91163 15.3569 5.62335L18.3807 2.73C16.5236 1.03834 14.1069 0 11.2141 0C7.02353 0 3.40447 2.35665 1.64258 5.78662L5.10686 8.42332C5.97598 5.89166 8.38073 4.05997 11.2141 4.05997Z" fill="#EB4335"/>
</svg>
