<svg width="1088" height="276" viewBox="0 0 1088 276" fill="none" xmlns="http://www.w3.org/2000/svg">
<path fill-rule="evenodd" clip-rule="evenodd" d="M68.2368 11.4807C73.1042 6.32684 79.6897 2.60464 86.2751 0.886719C88.7088 0.314056 119.918 -0.115417 155.708 0.0277405C212.213 0.276093 219.702 0.309021 225.835 3.2103C226.772 3.65359 227.677 4.16385 228.72 4.75208C233.015 7.18579 238.455 11.767 240.603 14.7733C245.613 21.6451 297.867 111.98 302.592 122.001C306.886 131.02 307.173 143.762 303.164 152.351C301.733 155.644 294.431 168.958 286.987 181.699C283.193 188.266 277.949 197.286 272.6 206.487C267.454 215.339 262.21 224.359 258.068 231.519C246.459 251.594 241.387 262.501 232.854 268.402C221.185 276.473 203.041 275.184 152.845 275.184C93.3718 275.184 85.913 275.184 79.806 272.31C78.9302 271.898 78.0823 271.427 77.1128 270.889C72.9611 268.598 67.9504 264.733 66.2325 262.299C63.2261 258.29 7.39327 162.802 2.81212 153.783C0.092055 148.2 -0.910073 134.599 0.951022 127.728C2.95528 120.14 62.5103 17.3503 68.2368 11.4807ZM222.565 36.677C223.137 33.6706 222.421 31.8095 219.701 29.0895C219.337 28.7248 219.008 28.3958 218.652 28.0991C215.376 25.3673 209.822 25.3673 153.131 25.3673C95.1511 25.3673 89.9973 25.5104 87.2772 27.801C83.1255 31.5232 24 134.742 24 138.321C24 140.039 25.5747 143.046 27.579 144.907C27.9031 145.244 28.1967 145.55 28.5153 145.827C31.5742 148.486 36.9439 148.486 93.8626 148.486C151.843 148.486 156.997 148.343 159.717 145.909C163.439 142.616 221.562 41.6877 222.565 36.677ZM193.759 235.802C197.405 241.827 205.244 243.756 211.268 240.11C217.293 236.465 219.222 228.626 215.577 222.601L189.482 179.475C185.837 173.45 177.998 171.522 171.973 175.167C165.949 178.812 164.02 186.651 167.665 192.676L193.759 235.802Z" fill="black"/>
<path d="M468.44 48.8549C458.819 49.4797 443.325 52.9782 430.33 57.4764C423.458 59.9754 417.71 62.0995 417.46 62.2245C417.336 62.3494 417.211 98.085 417.211 141.692C417.086 220.91 417.086 220.91 433.704 221.285C450.322 221.66 450.322 221.66 449.947 193.172C449.822 177.428 450.072 163.933 450.697 163.059C451.572 161.684 453.196 162.059 458.569 165.058C478.186 176.053 502.676 171.43 518.919 153.937C530.54 141.442 535.913 127.573 535.913 110.08C536.037 71.7207 508.049 46.3559 468.44 48.8549ZM485.183 80.842C505.425 89.3385 508.174 123.825 489.431 136.195C482.934 140.568 471.813 141.442 461.693 138.569C449.697 135.07 449.697 134.945 449.697 109.955C449.697 94.2116 450.197 87.7142 451.322 86.0898C455.445 80.4671 476.437 77.2184 485.183 80.842Z" fill="black"/>
<path d="M953.868 49.2297C942.873 50.2293 933.002 52.8533 919.882 58.1011C909.511 62.2245 909.511 62.2245 909.511 113.704C909.511 142.067 909.511 165.683 909.511 166.182C909.511 166.807 917.133 167.307 926.379 167.557C943.248 167.932 943.248 167.932 943.497 126.324C943.872 84.7154 943.872 84.7154 948.87 82.2164C952.619 80.3421 956.367 79.7174 963.489 79.7174C972.736 79.7174 973.36 79.8423 977.234 83.8407C981.357 87.8391 981.357 87.8391 981.732 127.823C982.107 167.807 982.107 167.807 998.85 167.807C1015.72 167.807 1015.72 167.807 1015.72 126.448C1015.72 85.2152 1015.72 85.2152 1021.72 82.5912C1030.46 78.5928 1041.96 78.093 1047.33 81.4667C1049.7 82.9661 1052.2 85.0902 1052.83 86.3397C1053.33 87.4642 1054.08 106.332 1054.45 128.198C1055.08 167.932 1055.08 167.932 1071.32 167.932C1087.56 167.932 1087.56 167.932 1087.94 130.697C1088.31 88.089 1087.06 76.4687 1081.07 66.8476C1068.57 46.7307 1038.83 43.1072 1010.35 58.2261C1003.22 61.9746 1002.97 61.9746 999.725 59.8504C985.98 50.979 971.611 47.6054 953.868 49.2297Z" fill="black"/>
<path d="M593.389 50.979C588.891 51.8537 579.395 54.7275 572.398 57.3514C559.528 62.2245 559.528 62.2245 559.278 115.078C559.028 167.807 559.028 167.807 575.896 167.807C592.764 167.807 592.764 167.807 592.389 128.073C592.015 82.8411 591.14 86.0898 603.135 82.2164C607.633 80.8419 612.631 80.2172 619.254 80.4671C628.75 80.9669 628.75 80.9669 628.875 65.5981C629 53.9778 628.625 50.2293 627.375 49.7295C624.127 48.48 601.511 49.3547 593.389 50.979Z" fill="black"/>
<path d="M812.051 51.104C793.433 56.1019 783.437 68.347 783.312 85.9649C783.312 100.834 789.56 110.58 802.68 116.078C805.304 117.202 814.925 119.701 824.046 121.575C845.162 126.074 850.785 128.947 850.785 134.82C850.785 138.444 844.413 143.692 838.665 144.816C827.67 146.815 807.178 143.067 793.558 136.444C789.185 134.32 785.187 133.071 784.812 133.571C784.312 134.195 784.062 140.943 784.312 148.689C784.687 162.684 784.687 162.684 792.434 165.183C831.418 177.803 869.153 171.305 880.023 149.939C886.396 137.444 885.021 121.451 876.65 112.079C871.027 105.457 862.281 101.833 843.413 97.7101C824.171 93.4618 820.547 92.3373 817.674 88.9636C814.675 85.715 816.174 80.8419 821.172 77.8431C829.544 72.7202 854.284 75.9689 869.278 84.0906C873.151 86.2148 876.65 87.4642 877.025 86.9644C877.399 86.3397 877.524 79.5924 877.15 71.7206C876.4 57.4764 876.4 57.4764 869.653 55.2273C851.785 49.1048 826.295 47.3555 812.051 51.104Z" fill="black"/>
<path d="M646.993 52.1036C646.743 52.3535 646.743 71.7206 647.117 94.9612C647.742 135.945 647.867 137.319 650.741 143.692C659.737 163.683 687.101 173.929 711.466 166.432C722.837 162.934 723.836 163.558 722.962 172.805C721.712 184.05 717.339 190.922 709.217 193.921C699.721 197.545 673.357 194.171 660.737 187.799C657.613 186.174 655.239 185.55 654.739 186.299C654.365 187.049 654.115 194.046 654.365 201.918C654.739 216.287 654.739 216.287 661.862 218.911C665.735 220.286 671.233 222.035 673.982 222.785C681.853 224.909 707.968 225.783 715.84 224.159C730.209 221.16 742.704 212.914 748.951 202.293C755.449 191.172 755.699 187.674 755.823 117.327C755.948 52.2285 755.948 52.2285 739.58 52.2285C723.087 52.2285 723.087 52.2285 723.337 92.3373C723.462 127.323 723.212 132.821 721.462 134.57C716.589 139.318 696.473 141.942 689.475 138.569C680.979 134.57 680.854 133.82 680.854 90.463C680.854 51.6038 680.854 51.6038 664.236 51.6038C654.989 51.6038 647.242 51.8537 646.993 52.1036Z" fill="black"/>
</svg>
