<svg width="50" height="50" viewBox="0 0 50 50" fill="none" xmlns="http://www.w3.org/2000/svg">
<path d="M29.7517 46.1035H12.5785C8.06314 46.1035 5.80547 46.1035 4.40274 44.7008C3 43.298 3 41.0404 3 36.525V12.5789C3 8.06352 3 5.80585 4.40274 4.40311C5.80547 3.00038 8.06314 3.00038 12.5785 3.00038H36.5247C41.04 3.00038 43.2977 3.00038 44.7004 4.40311C46.1031 5.80585 46.1031 8.06352 46.1031 12.5789V29.752C46.1031 30.7308 46.1031 31.2202 45.9209 31.6603C45.7386 32.1004 45.3925 32.4464 44.7004 33.1385L33.1382 44.7008C32.446 45.3929 32.1 45.739 31.6599 45.9212C31.2199 46.1035 30.7305 46.1035 29.7517 46.1035Z" stroke="#281010" stroke-width="6"/>
<path d="M29.3408 46.1035V34.9286C29.3408 32.2947 29.3408 30.9777 30.1591 30.1594C30.9773 29.3412 32.2943 29.3412 34.9283 29.3412H46.1032" stroke="#281010" stroke-width="6"/>
</svg>
