<svg width="25" height="21" viewBox="0 0 25 21" fill="none" xmlns="http://www.w3.org/2000/svg">
<path d="M17.4172 19.2229V17.2606C17.4172 16.2198 17.0024 15.2215 16.2641 14.4856C15.5258 13.7496 14.5244 13.3361 13.4802 13.3361H5.6062C4.56204 13.3361 3.56064 13.7496 2.82231 14.4856C2.08398 15.2215 1.66919 16.2198 1.66919 17.2606V19.2229M23.3227 19.2229V17.2606C23.3221 16.3911 23.0317 15.5464 22.4973 14.8591C21.9629 14.1719 21.2146 13.681 20.37 13.4636M16.433 1.69005C17.2798 1.90619 18.0304 2.39715 18.5665 3.08552C19.1025 3.77389 19.3934 4.62052 19.3934 5.49193C19.3934 6.36335 19.1025 7.20997 18.5665 7.89835C18.0304 8.58672 17.2798 9.07768 16.433 9.29382M13.4802 5.48703C13.4802 7.65449 11.7176 9.41156 9.54321 9.41156C7.36886 9.41156 5.6062 7.65449 5.6062 5.48703C5.6062 3.31957 7.36886 1.5625 9.54321 1.5625C11.7176 1.5625 13.4802 3.31957 13.4802 5.48703Z" stroke="#281010" stroke-width="2" stroke-linecap="round" stroke-linejoin="round"/>
</svg>
