<svg width="50" height="50" viewBox="0 0 50 50" fill="none" xmlns="http://www.w3.org/2000/svg">
<path d="M29.3408 46.1031V34.9282C29.3408 32.2943 29.3408 30.9773 30.1591 30.1591C30.9773 29.3408 32.2943 29.3408 34.9282 29.3408H46.1031M12.5785 46.1031H29.7517C30.7305 46.1031 31.2199 46.1031 31.6599 45.9209C32.1 45.7386 32.446 45.3925 33.1382 44.7004L44.7004 33.1382C45.3925 32.446 45.7386 32.1 45.9209 31.6599C46.1031 31.2199 46.1031 30.7305 46.1031 29.7517V12.5785C46.1031 8.06314 46.1031 5.80547 44.7004 4.40274C43.2977 3 41.04 3 36.5247 3H12.5785C8.06314 3 5.80547 3 4.40274 4.40274C3 5.80547 3 8.06314 3 12.5785V36.5247C3 41.04 3 43.2977 4.40274 44.7004C5.80547 46.1031 8.06314 46.1031 12.5785 46.1031Z" stroke="#281010" stroke-width="6"/>
</svg>
