<svg width="128" height="52" viewBox="0 0 128 52" fill="none" xmlns="http://www.w3.org/2000/svg">
<rect x="2" width="125" height="52" rx="15" fill="#F7F2F2"/>
<rect width="128" height="52" rx="15" fill="url(#paint0_angular_654_3451)" fill-opacity="0.3"/>
<path d="M59.1374 32.0804C58.3094 32.0804 57.5594 31.9844 56.8874 31.7924C56.2274 31.5884 55.6394 31.3004 55.1234 30.9284C54.6074 30.5444 54.1454 30.0944 53.7374 29.5784L55.5914 27.4724C56.1914 28.2764 56.7914 28.8164 57.3914 29.0924C58.0034 29.3684 58.6334 29.5064 59.2814 29.5064C59.6054 29.5064 59.8994 29.4644 60.1634 29.3804C60.4274 29.2964 60.6314 29.1764 60.7754 29.0204C60.9194 28.8524 60.9914 28.6484 60.9914 28.4084C60.9914 28.2284 60.9434 28.0664 60.8474 27.9224C60.7634 27.7784 60.6434 27.6524 60.4874 27.5444C60.3314 27.4364 60.1454 27.3404 59.9294 27.2564C59.7134 27.1604 59.4854 27.0824 59.2454 27.0224C59.0054 26.9504 58.7594 26.8904 58.5074 26.8424C57.8114 26.6864 57.2054 26.4944 56.6894 26.2664C56.1734 26.0384 55.7414 25.7624 55.3934 25.4384C55.0574 25.1024 54.8054 24.7244 54.6374 24.3044C54.4694 23.8724 54.3854 23.3924 54.3854 22.8644C54.3854 22.3004 54.5114 21.7844 54.7634 21.3164C55.0274 20.8364 55.3754 20.4284 55.8074 20.0924C56.2514 19.7444 56.7614 19.4804 57.3374 19.3004C57.9134 19.1084 58.5134 19.0124 59.1374 19.0124C59.9654 19.0124 60.6734 19.1024 61.2614 19.2824C61.8614 19.4504 62.3714 19.6964 62.7914 20.0204C63.2234 20.3444 63.5894 20.7344 63.8894 21.1904L61.9994 23.0084C61.7474 22.6964 61.4714 22.4384 61.1714 22.2344C60.8834 22.0304 60.5714 21.8744 60.2354 21.7664C59.9114 21.6584 59.5754 21.6044 59.2274 21.6044C58.8674 21.6044 58.5554 21.6524 58.2914 21.7484C58.0394 21.8324 57.8414 21.9584 57.6974 22.1264C57.5534 22.2824 57.4814 22.4744 57.4814 22.7024C57.4814 22.9064 57.5414 23.0804 57.6614 23.2244C57.7814 23.3684 57.9434 23.5004 58.1474 23.6204C58.3514 23.7284 58.5854 23.8244 58.8494 23.9084C59.1134 23.9804 59.3894 24.0404 59.6774 24.0884C60.3374 24.2204 60.9314 24.3944 61.4594 24.6104C61.9994 24.8264 62.4614 25.0904 62.8454 25.4024C63.2414 25.7144 63.5414 26.0864 63.7454 26.5184C63.9614 26.9384 64.0694 27.4304 64.0694 27.9944C64.0694 28.8704 63.8534 29.6144 63.4214 30.2264C63.0014 30.8264 62.4194 31.2884 61.6754 31.6124C60.9434 31.9244 60.0974 32.0804 59.1374 32.0804ZM66.0636 31.9004V18.5804H68.8896V24.2864L68.3136 24.5024C68.4456 24.0704 68.6796 23.6804 69.0156 23.3324C69.3636 22.9724 69.7776 22.6844 70.2576 22.4684C70.7376 22.2524 71.2416 22.1444 71.7696 22.1444C72.4896 22.1444 73.0956 22.2944 73.5876 22.5944C74.0796 22.8824 74.4516 23.3204 74.7036 23.9084C74.9556 24.4844 75.0816 25.1924 75.0816 26.0324V31.9004H72.1836V26.2664C72.1836 25.8824 72.1296 25.5644 72.0216 25.3124C71.9136 25.0604 71.7456 24.8744 71.5176 24.7544C71.3016 24.6224 71.0316 24.5624 70.7076 24.5744C70.4556 24.5744 70.2216 24.6164 70.0056 24.7004C69.7896 24.7724 69.6036 24.8864 69.4476 25.0424C69.2916 25.1864 69.1656 25.3544 69.0696 25.5464C68.9856 25.7384 68.9436 25.9484 68.9436 26.1764V31.9004H67.5216C67.1856 31.9004 66.8976 31.9004 66.6576 31.9004C66.4176 31.9004 66.2196 31.9004 66.0636 31.9004ZM81.0174 32.0624C80.2134 32.0624 79.4934 31.8524 78.8574 31.4324C78.2334 31.0004 77.7354 30.4124 77.3634 29.6684C76.9914 28.9124 76.8054 28.0604 76.8054 27.1124C76.8054 26.1404 76.9914 25.2824 77.3634 24.5384C77.7354 23.7944 78.2454 23.2124 78.8934 22.7924C79.5414 22.3604 80.2794 22.1444 81.1074 22.1444C81.5634 22.1444 81.9774 22.2104 82.3494 22.3424C82.7334 22.4744 83.0694 22.6604 83.3574 22.9004C83.6454 23.1284 83.8914 23.3984 84.0954 23.7104C84.2994 24.0104 84.4494 24.3344 84.5454 24.6824L83.9514 24.6104V22.3424H86.8134V31.9004H83.8974V29.5964L84.5454 29.5784C84.4494 29.9144 84.2934 30.2324 84.0774 30.5324C83.8614 30.8324 83.5974 31.0964 83.2854 31.3244C82.9734 31.5524 82.6254 31.7324 82.2414 31.8644C81.8574 31.9964 81.4494 32.0624 81.0174 32.0624ZM81.8094 29.6324C82.2534 29.6324 82.6374 29.5304 82.9614 29.3264C83.2854 29.1224 83.5374 28.8344 83.7174 28.4624C83.8974 28.0784 83.9874 27.6284 83.9874 27.1124C83.9874 26.5964 83.8974 26.1524 83.7174 25.7804C83.5374 25.3964 83.2854 25.1024 82.9614 24.8984C82.6374 24.6824 82.2534 24.5744 81.8094 24.5744C81.3774 24.5744 80.9994 24.6824 80.6754 24.8984C80.3634 25.1024 80.1174 25.3964 79.9374 25.7804C79.7574 26.1524 79.6674 26.5964 79.6674 27.1124C79.6674 27.6284 79.7574 28.0784 79.9374 28.4624C80.1174 28.8344 80.3634 29.1224 80.6754 29.3264C80.9994 29.5304 81.3774 29.6324 81.8094 29.6324ZM89.3547 31.9004V22.3424H92.0907L92.2167 25.4564L91.6767 24.8624C91.8207 24.3464 92.0547 23.8844 92.3787 23.4764C92.7147 23.0684 93.1047 22.7444 93.5487 22.5044C93.9927 22.2644 94.4667 22.1444 94.9707 22.1444C95.1867 22.1444 95.3847 22.1624 95.5647 22.1984C95.7567 22.2344 95.9307 22.2764 96.0867 22.3244L95.2947 25.5104C95.1627 25.4264 94.9827 25.3604 94.7547 25.3124C94.5387 25.2524 94.3107 25.2224 94.0707 25.2224C93.8067 25.2224 93.5607 25.2704 93.3327 25.3664C93.1047 25.4504 92.9127 25.5764 92.7567 25.7444C92.6007 25.9124 92.4747 26.1104 92.3787 26.3384C92.2947 26.5664 92.2527 26.8244 92.2527 27.1124V31.9004H89.3547ZM101.696 32.0804C100.64 32.0804 99.7218 31.8704 98.9418 31.4504C98.1618 31.0184 97.5558 30.4364 97.1238 29.7044C96.6918 28.9604 96.4758 28.1144 96.4758 27.1664C96.4758 26.4344 96.5958 25.7624 96.8358 25.1504C97.0758 24.5384 97.4118 24.0104 97.8438 23.5664C98.2758 23.1104 98.7858 22.7624 99.3738 22.5224C99.9738 22.2704 100.628 22.1444 101.336 22.1444C102.008 22.1444 102.62 22.2644 103.172 22.5044C103.736 22.7444 104.222 23.0804 104.63 23.5124C105.038 23.9444 105.35 24.4544 105.566 25.0424C105.782 25.6304 105.878 26.2724 105.854 26.9684L105.836 27.7424H98.2218L97.8078 26.1224H103.496L103.19 26.4644V26.1044C103.166 25.8044 103.07 25.5404 102.902 25.3124C102.746 25.0724 102.536 24.8864 102.272 24.7544C102.008 24.6224 101.708 24.5564 101.372 24.5564C100.904 24.5564 100.502 24.6524 100.166 24.8444C99.8418 25.0244 99.5958 25.2944 99.4278 25.6544C99.2598 26.0024 99.1758 26.4344 99.1758 26.9504C99.1758 27.4784 99.2838 27.9404 99.4998 28.3364C99.7278 28.7204 100.052 29.0204 100.472 29.2364C100.904 29.4524 101.414 29.5604 102.002 29.5604C102.41 29.5604 102.77 29.5004 103.082 29.3804C103.406 29.2604 103.754 29.0564 104.126 28.7684L105.476 30.6764C105.104 31.0004 104.708 31.2644 104.288 31.4684C103.868 31.6724 103.436 31.8224 102.992 31.9184C102.56 32.0264 102.128 32.0804 101.696 32.0804Z" fill="#281010"/>
<path d="M38.4173 35.2229V33.2606C38.4173 32.2198 38.0025 31.2215 37.2642 30.4856C36.5259 29.7496 35.5245 29.3361 34.4803 29.3361H26.6063C25.5621 29.3361 24.5607 29.7496 23.8224 30.4856C23.0841 31.2215 22.6693 32.2198 22.6693 33.2606V35.2229M44.3228 35.2229V33.2606C44.3222 32.3911 44.0318 31.5464 43.4974 30.8591C42.963 30.1719 42.2147 29.681 41.3701 29.4636M37.4331 17.69C38.2799 17.9062 39.0305 18.3972 39.5666 19.0855C40.1026 19.7739 40.3935 20.6205 40.3935 21.4919C40.3935 22.3633 40.1026 23.21 39.5666 23.8983C39.0305 24.5867 38.2799 25.0777 37.4331 25.2938M34.4803 21.487C34.4803 23.6545 32.7176 25.4116 30.5433 25.4116C28.3689 25.4116 26.6063 23.6545 26.6063 21.487C26.6063 19.3196 28.3689 17.5625 30.5433 17.5625C32.7176 17.5625 34.4803 19.3196 34.4803 21.487Z" stroke="#281010" stroke-width="2" stroke-linecap="round" stroke-linejoin="round"/>
<defs>
<radialGradient id="paint0_angular_654_3451" cx="0" cy="0" r="1" gradientUnits="userSpaceOnUse" gradientTransform="translate(63.9475 67.6765) rotate(-13.7525) scale(65.943 91.2553)">
<stop offset="0.621974" stop-color="#88A9F7"/>
<stop offset="0.925946" stop-color="#EF5959"/>
<stop offset="0.981638" stop-color="#FEEAA5"/>
</radialGradient>
</defs>
</svg>
