<svg width="497" height="111" viewBox="0 0 497 111" fill="none" xmlns="http://www.w3.org/2000/svg">
<path fill-rule="evenodd" clip-rule="evenodd" d="M28.0975 4.62965C30.1017 2.55134 32.8134 1.05034 35.525 0.357577C36.5272 0.126647 49.378 -0.0465406 64.1152 0.0111888C87.3818 0.111338 90.4656 0.124617 92.9907 1.29457C93.3765 1.47334 93.7493 1.6791 94.179 1.91631C95.9475 2.89772 98.1875 4.74511 99.0717 5.95745C101.135 8.72852 122.651 45.1566 124.597 49.1977C126.365 52.8347 126.483 57.9728 124.832 61.4366C124.243 62.7644 121.236 68.1334 118.171 73.2714C116.609 75.9193 114.45 79.5568 112.247 83.267C110.128 86.8369 107.969 90.4741 106.263 93.3616C101.483 101.457 99.3948 105.855 95.8812 108.235C91.076 111.49 83.605 110.969 62.9362 110.969C38.4472 110.969 35.376 110.969 32.8613 109.811C32.5007 109.645 32.1515 109.455 31.7523 109.238C30.0428 108.314 27.9796 106.755 27.2722 105.774C26.0343 104.157 3.04429 65.6509 1.15793 62.0139C0.0379051 59.7624 -0.374736 54.278 0.391597 51.5069C1.21688 48.4472 25.7395 6.9966 28.0975 4.62965ZM91.6442 14.7902C91.88 13.5779 91.5853 12.8274 90.4652 11.7305C90.3151 11.5835 90.1796 11.4508 90.0331 11.3312C88.6842 10.2295 86.3972 10.2295 63.0541 10.2295C39.1799 10.2295 37.0577 10.2872 35.9377 11.2109C34.2282 12.7119 9.88234 54.3357 9.88234 55.779C9.88234 56.4718 10.5308 57.6841 11.3561 58.4346C11.4895 58.5708 11.6104 58.6941 11.7416 58.8058C13.0011 59.8779 15.2122 59.8779 38.6493 59.8779C62.5235 59.8779 64.6457 59.8201 65.7657 58.8387C67.2984 57.5109 91.2316 16.8108 91.6442 14.7902ZM79.7833 95.0888C81.2843 97.5182 84.5121 98.2961 86.9929 96.8261C89.4736 95.3561 90.2678 92.1949 88.7668 89.7654L78.0221 72.3745C76.5211 69.945 73.2932 69.1672 70.8125 70.6372C68.3318 72.1072 67.5376 75.2683 69.0386 77.6978L79.7833 95.0888Z" fill="white"/>
<path d="M209.718 21.0779C205.265 21.367 198.095 22.9861 192.081 25.0679C188.9 26.2244 186.24 27.2074 186.125 27.2653C186.067 27.3231 186.009 43.8614 186.009 64.0428C185.951 100.705 185.951 100.705 193.642 100.878C201.333 101.052 201.333 101.052 201.159 87.8672C201.102 80.5811 201.217 74.3359 201.506 73.9311C201.911 73.295 202.663 73.4685 205.149 74.8563C214.228 79.945 225.562 77.8054 233.08 69.7098C238.457 63.9271 240.944 57.5084 240.944 49.4127C241.002 31.6601 228.049 19.9213 209.718 21.0779ZM217.466 35.8814C226.834 39.8136 228.106 55.7736 219.433 61.4984C216.426 63.5224 211.279 63.9271 206.595 62.5971C201.044 60.978 201.044 60.9202 201.044 49.3549C201.044 42.0688 201.275 39.0618 201.796 38.3101C203.704 35.7079 213.419 34.2044 217.466 35.8814Z" fill="white"/>
<path d="M434.373 21.2598C429.284 21.7224 424.716 22.9368 418.644 25.3655C413.845 27.2737 413.845 27.2737 413.845 51.0982C413.845 64.2247 413.845 75.1539 413.845 75.3852C413.845 75.6743 417.372 75.9056 421.651 76.0213C429.458 76.1948 429.458 76.1948 429.574 56.9386C429.747 37.6825 429.747 37.6825 432.06 36.5259C433.795 35.6585 435.53 35.3694 438.826 35.3694C443.105 35.3694 443.394 35.4272 445.187 37.2777C447.095 39.1281 447.095 39.1281 447.268 57.6325C447.442 76.1369 447.442 76.1369 455.191 76.1369C462.997 76.1369 462.997 76.1369 462.997 56.9964C462.997 37.9138 462.997 37.9138 465.773 36.6994C469.821 34.849 475.141 34.6177 477.627 36.179C478.726 36.8729 479.882 37.8559 480.172 38.4342C480.403 38.9546 480.75 47.6864 480.923 57.806C481.212 76.1948 481.212 76.1948 488.73 76.1948C496.247 76.1948 496.247 76.1948 496.421 58.9625C496.594 39.2438 496.016 33.8659 493.24 29.4133C487.458 20.1033 473.695 18.4263 460.511 25.4233C457.215 27.1581 457.099 27.1581 455.595 26.175C449.235 22.0694 442.584 20.5081 434.373 21.2598Z" fill="white"/>
<path d="M267.544 22.0682C265.462 22.473 261.067 23.803 257.829 25.0174C251.873 27.2726 251.873 27.2726 251.757 51.7331C251.642 76.1358 251.642 76.1358 259.448 76.1358C267.255 76.1358 267.255 76.1358 267.081 57.747C266.908 36.8139 266.503 38.3174 272.054 36.5248C274.136 35.8887 276.449 35.5996 279.514 35.7152C283.909 35.9465 283.909 35.9465 283.966 28.8339C284.024 23.4561 283.851 21.7213 283.273 21.49C281.769 20.9117 271.303 21.3165 267.544 22.0682Z" fill="white"/>
<path d="M368.74 22.1244C360.124 24.4374 355.498 30.1044 355.44 38.2579C355.44 45.1393 358.331 49.6497 364.403 52.1941C365.617 52.7145 370.07 53.871 374.291 54.7384C384.064 56.8202 386.666 58.1502 386.666 60.868C386.666 62.545 383.717 64.9737 381.057 65.4941C375.968 66.4193 366.485 64.6845 360.182 61.6198C358.158 60.6367 356.307 60.0584 356.134 60.2897C355.903 60.5789 355.787 63.7015 355.903 67.2867C356.076 73.7633 356.076 73.7633 359.661 74.9198C377.703 80.7602 395.167 77.7533 400.198 67.865C403.147 62.0824 402.511 54.6806 398.636 50.3436C396.034 47.2788 391.986 45.6019 383.254 43.6936C374.349 41.7275 372.672 41.2071 371.342 39.6458C369.954 38.1423 370.648 35.8871 372.961 34.4992C376.836 32.1283 388.285 33.6318 395.225 37.3905C397.017 38.3736 398.636 38.9518 398.81 38.7205C398.983 38.4314 399.041 35.3088 398.868 31.6657C398.521 25.0735 398.521 25.0735 395.398 24.0327C387.129 21.1992 375.332 20.3896 368.74 22.1244Z" fill="white"/>
<path d="M292.352 22.5875C292.237 22.7032 292.237 31.6662 292.41 42.4219C292.699 61.3889 292.757 62.025 294.087 64.9742C298.25 74.2264 310.914 78.9681 322.191 75.4985C327.453 73.8794 327.915 74.1685 327.511 78.4477C326.932 83.6521 324.908 86.8325 321.15 88.2203C316.755 89.8973 304.554 88.336 298.713 85.3868C297.267 84.6351 296.169 84.346 295.937 84.6929C295.764 85.0399 295.648 88.2782 295.764 91.9212C295.937 98.5712 295.937 98.5712 299.234 99.7856C301.026 100.422 303.571 101.231 304.843 101.578C308.486 102.561 320.571 102.966 324.214 102.214C330.864 100.826 336.647 97.0099 339.538 92.0947C342.545 86.9482 342.661 85.329 342.719 52.7728C342.777 22.6453 342.777 22.6453 335.201 22.6453C327.568 22.6453 327.568 22.6453 327.684 41.2076C327.742 57.3989 327.626 59.9433 326.817 60.7528C324.561 62.9502 315.251 64.1646 312.013 62.6033C308.081 60.7528 308.023 60.4059 308.023 40.3402C308.023 22.3562 308.023 22.3562 300.332 22.3562C296.053 22.3562 292.468 22.4719 292.352 22.5875Z" fill="white"/>
</svg>
