<svg width="37" height="36" viewBox="0 0 37 36" fill="none" xmlns="http://www.w3.org/2000/svg">
<path d="M13.2686 12.635C13.5817 11.6701 14.1553 10.8114 14.9264 10.1524C15.6976 9.49335 16.637 9.06026 17.6388 8.90131C18.6407 8.74235 19.6664 8.8634 20.6037 9.25138C21.541 9.63937 22.3527 10.2794 22.9491 11.0999C23.5455 11.9205 23.9026 12.8897 23.9823 13.901C24.0621 14.9122 23.8604 15.9261 23.3999 16.83C22.9395 17.7339 22.2388 18.4922 21.3739 19.0223C20.509 19.5524 19.5144 19.8329 18.5 19.8329V21.6671M18.5 34.5C9.3873 34.5 2 27.1127 2 18C2 8.8873 9.3873 1.5 18.5 1.5C27.6127 1.5 35 8.8873 35 18C35 27.1127 27.6127 34.5 18.5 34.5ZM18.5913 27.1667V27.35L18.4087 27.3504V27.1667H18.5913Z" stroke="#F7F2F2" stroke-width="3" stroke-linecap="round" stroke-linejoin="round"/>
</svg>
