<svg width="3500" height="3500" viewBox="0 0 3500 3500" fill="none" xmlns="http://www.w3.org/2000/svg">
  <path
    d="M3500 1832.03C3500 1954.39 3470.61 2067.87 3411.82 2171.78C3353.03 2275.68 3274.41 2357.03 3175.29 2413.77C3178.03 2432.23 3179.39 2460.94 3179.39 2499.9C3179.39 2685.16 3117.19 2842.38 2994.14 2972.27C2870.41 3102.83 2721.39 3167.77 2547.07 3167.77C2469.14 3167.77 2394.63 3153.42 2324.22 3124.71C2269.53 3236.82 2190.92 3327.05 2087.7 3396.09C1985.16 3465.82 1872.36 3500 1750 3500C1624.9 3500 1511.43 3466.5 1410.25 3398.14C1308.4 3330.47 1230.47 3239.55 1175.78 3124.71C1105.37 3153.42 1031.54 3167.77 952.93 3167.77C778.613 3167.77 628.906 3102.83 503.809 2972.27C378.711 2842.38 316.504 2684.47 316.504 2499.9C316.504 2479.39 319.238 2450.68 324.023 2413.77C224.902 2356.35 146.289 2275.68 87.5 2171.78C29.3945 2067.87 0 1954.39 0 1832.03C0 1702.15 32.8125 1582.52 97.7539 1474.51C162.695 1366.5 250.195 1286.52 359.57 1234.57C330.859 1156.64 316.504 1078.03 316.504 1000.1C316.504 815.527 378.711 657.617 503.809 527.734C628.906 397.852 778.613 332.227 952.93 332.227C1030.86 332.227 1105.37 346.582 1175.78 375.293C1230.47 263.184 1309.08 172.949 1412.3 103.906C1514.84 34.8633 1627.64 0 1750 0C1872.36 0 1985.16 34.8633 2087.7 103.223C2190.23 172.266 2269.53 262.5 2324.22 374.609C2394.63 345.898 2468.46 331.543 2547.07 331.543C2721.39 331.543 2870.41 396.484 2994.14 527.051C3117.87 657.617 3179.39 814.844 3179.39 999.414C3179.39 1085.55 3166.41 1163.48 3140.43 1233.89C3249.8 1285.84 3337.3 1365.82 3402.25 1473.83C3467.19 1582.52 3500 1702.15 3500 1832.03ZM1675.49 2359.08L2398.05 1276.95C2416.5 1248.24 2421.97 1216.8 2415.82 1183.3C2408.98 1149.8 2391.89 1123.14 2363.18 1105.37C2334.47 1086.91 2303.03 1080.76 2269.53 1085.55C2235.35 1091.02 2208.01 1107.42 2187.5 1136.13L1551.07 2093.16L1257.81 1800.59C1231.84 1774.61 1201.76 1762.3 1168.26 1763.67C1134.08 1765.04 1104.69 1777.34 1078.71 1800.59C1055.47 1823.83 1043.85 1853.22 1043.85 1888.77C1043.85 1923.63 1055.47 1953.03 1078.71 1976.95L1481.35 2379.59L1501.17 2395.31C1524.41 2411.04 1548.34 2418.55 1571.58 2418.55C1617.38 2417.87 1652.25 2398.73 1675.49 2359.08Z"
    fill="#EF5959"
  />
</svg>
